<?xml version="1.0" encoding="UTF-8" standalone="no"?>
<!-- Created with Inkscape (http://www.inkscape.org/) -->

<svg
   width="3.7707896in"
   height="2.3004618in"
   viewBox="0 0 95.778055 58.431732"
   version="1.1"
   id="svg8"
   inkscape:version="1.2.1 (9c6d41e, 2022-07-14)"
   sodipodi:docname="bayes_diagram.svg"
   xml:space="preserve"
   xmlns:inkscape="http://www.inkscape.org/namespaces/inkscape"
   xmlns:sodipodi="http://sodipodi.sourceforge.net/DTD/sodipodi-0.dtd"
   xmlns:xlink="http://www.w3.org/1999/xlink"
   xmlns="http://www.w3.org/2000/svg"
   xmlns:svg="http://www.w3.org/2000/svg"
   xmlns:rdf="http://www.w3.org/1999/02/22-rdf-syntax-ns#"
   xmlns:cc="http://creativecommons.org/ns#"
   xmlns:dc="http://purl.org/dc/elements/1.1/"><defs
     id="defs2"><inkscape:path-effect
       effect="bspline"
       id="path-effect975"
       is_visible="true"
       weight="33.333333"
       steps="2"
       helper_size="0"
       apply_no_weight="true"
       apply_with_weight="true"
       only_selected="false"
       lpeversion="0" /><inkscape:path-effect
       effect="bspline"
       id="path-effect971"
       is_visible="true"
       weight="33.333333"
       steps="2"
       helper_size="0"
       apply_no_weight="true"
       apply_with_weight="true"
       only_selected="false"
       lpeversion="0" /><inkscape:path-effect
       effect="bspline"
       id="path-effect1003"
       is_visible="true"
       weight="33.333333"
       steps="2"
       helper_size="0"
       apply_no_weight="true"
       apply_with_weight="true"
       only_selected="false"
       lpeversion="0" /><inkscape:path-effect
       effect="bspline"
       id="path-effect992"
       is_visible="true"
       weight="33.333333"
       steps="2"
       helper_size="0"
       apply_no_weight="true"
       apply_with_weight="true"
       only_selected="false"
       lpeversion="0" /><inkscape:path-effect
       effect="bspline"
       id="path-effect909"
       is_visible="true"
       weight="33.333333"
       steps="2"
       helper_size="0"
       apply_no_weight="true"
       apply_with_weight="true"
       only_selected="false"
       lpeversion="0" /><inkscape:path-effect
       effect="bspline"
       id="path-effect887"
       is_visible="true"
       weight="33.333333"
       steps="2"
       helper_size="0"
       apply_no_weight="true"
       apply_with_weight="true"
       only_selected="false"
       lpeversion="0" /><inkscape:path-effect
       effect="powerstroke"
       id="path-effect1142"
       is_visible="true"
       offset_points="0,0.13229166"
       sort_points="true"
       interpolator_type="CubicBezierJohan"
       interpolator_beta="0.2"
       start_linecap_type="zerowidth"
       linejoin_type="extrp_arc"
       miter_limit="4"
       end_linecap_type="zerowidth"
       lpeversion="0"
       not_jump="false"
       scale_width="1" /><inkscape:path-effect
       effect="powerstroke"
       id="path-effect1120"
       is_visible="true"
       offset_points="0,0.1315064"
       sort_points="true"
       interpolator_type="CubicBezierJohan"
       interpolator_beta="0.2"
       start_linecap_type="zerowidth"
       linejoin_type="extrp_arc"
       miter_limit="4"
       end_linecap_type="zerowidth"
       lpeversion="0"
       not_jump="false"
       scale_width="1" /><inkscape:path-effect
       effect="powerstroke"
       id="path-effect892"
       is_visible="true"
       offset_points="0,0.13229166"
       sort_points="true"
       interpolator_type="CubicBezierJohan"
       interpolator_beta="0.20673077"
       start_linecap_type="zerowidth"
       linejoin_type="extrp_arc"
       miter_limit="4"
       end_linecap_type="zerowidth"
       lpeversion="0"
       not_jump="false"
       scale_width="1" /><marker
       inkscape:stockid="Arrow2Lend"
       orient="auto"
       refY="0"
       refX="0"
       id="marker1123"
       style="overflow:visible"
       inkscape:isstock="true"><path
         id="path1121"
         style="fill:#000000;fill-opacity:1;fill-rule:evenodd;stroke:#000000;stroke-width:0.625;stroke-linejoin:round;stroke-opacity:1"
         d="M 8.7185878,4.0337352 -2.2072895,0.01601326 8.7185884,-4.0017078 c -1.7454984,2.3720609 -1.7354408,5.6174519 -6e-7,8.035443 z"
         transform="matrix(-1.1,0,0,-1.1,-1.1,0)"
         inkscape:connector-curvature="0" /></marker><marker
       inkscape:stockid="Arrow2Lend"
       orient="auto"
       refY="0"
       refX="0"
       id="Arrow2Lend"
       style="overflow:visible"
       inkscape:isstock="true"><path
         id="path860"
         style="fill:#000000;fill-opacity:1;fill-rule:evenodd;stroke:#000000;stroke-width:0.625;stroke-linejoin:round;stroke-opacity:1"
         d="M 8.7185878,4.0337352 -2.2072895,0.01601326 8.7185884,-4.0017078 c -1.7454984,2.3720609 -1.7354408,5.6174519 -6e-7,8.035443 z"
         transform="matrix(-1.1,0,0,-1.1,-1.1,0)"
         inkscape:connector-curvature="0" /></marker><marker
       inkscape:stockid="Arrow2Lend"
       orient="auto"
       refY="0"
       refX="0"
       id="marker1123-6"
       style="overflow:visible"
       inkscape:isstock="true"><path
         inkscape:connector-curvature="0"
         id="path1121-2"
         style="fill:#000000;fill-opacity:1;fill-rule:evenodd;stroke:#000000;stroke-width:0.625;stroke-linejoin:round;stroke-opacity:1"
         d="M 8.7185878,4.0337352 -2.2072895,0.01601326 8.7185884,-4.0017078 c -1.7454984,2.3720609 -1.7354408,5.6174519 -6e-7,8.035443 z"
         transform="matrix(-1.1,0,0,-1.1,-1.1,0)" /></marker><inkscape:path-effect
       effect="bspline"
       id="path-effect887-8"
       is_visible="true"
       weight="33.333333"
       steps="2"
       helper_size="0"
       apply_no_weight="true"
       apply_with_weight="true"
       only_selected="false"
       lpeversion="0" /><inkscape:path-effect
       effect="bspline"
       id="path-effect887-1"
       is_visible="true"
       weight="33.333333"
       steps="2"
       helper_size="0"
       apply_no_weight="true"
       apply_with_weight="true"
       only_selected="false"
       lpeversion="0" /><inkscape:path-effect
       effect="bspline"
       id="path-effect909-8"
       is_visible="true"
       weight="33.333333"
       steps="2"
       helper_size="0"
       apply_no_weight="true"
       apply_with_weight="true"
       only_selected="false"
       lpeversion="0" /><inkscape:path-effect
       effect="bspline"
       id="path-effect909-5"
       is_visible="true"
       weight="33.333333"
       steps="2"
       helper_size="0"
       apply_no_weight="true"
       apply_with_weight="true"
       only_selected="false"
       lpeversion="0" /><inkscape:path-effect
       effect="bspline"
       id="path-effect992-5"
       is_visible="true"
       weight="33.333333"
       steps="2"
       helper_size="0"
       apply_no_weight="true"
       apply_with_weight="true"
       only_selected="false"
       lpeversion="0" /><inkscape:path-effect
       effect="bspline"
       id="path-effect909-2"
       is_visible="true"
       weight="33.333333"
       steps="2"
       helper_size="0"
       apply_no_weight="true"
       apply_with_weight="true"
       only_selected="false"
       lpeversion="0" /><path
       style="fill:none;stroke:#aaaaaa;stroke-width:0.5;stroke-linecap:butt;stroke-linejoin:miter;stroke-miterlimit:4;stroke-dasharray:none;stroke-opacity:1"
       d="m 65.960455,288.03792 c 3.897779,-5.99784 7.795386,-11.99542 12.868566,-13.2449 5.07318,-1.24947 11.32247,2.24908 18.314779,0.31189 6.99231,-1.9372 14.72787,-9.30987 22.46312,-16.68225"
       id="path885-5"
       inkscape:connector-curvature="0"
       inkscape:original-d="m 65.960455,288.03792 c 3.897846,-5.9978 7.795454,-11.99538 11.692809,-17.99272 6.24909,3.49808 12.49838,6.99663 18.747188,10.49527 7.735668,-7.37275 15.471228,-14.74542 23.206468,-22.11781"
       sodipodi:nodetypes="cccc" /><inkscape:path-effect
       effect="bspline"
       id="path-effect1003-6"
       is_visible="true"
       weight="33.333333"
       steps="2"
       helper_size="0"
       apply_no_weight="true"
       apply_with_weight="true"
       only_selected="false"
       lpeversion="0" /><inkscape:path-effect
       effect="bspline"
       id="path-effect1003-3"
       is_visible="true"
       weight="33.333333"
       steps="2"
       helper_size="0"
       apply_no_weight="true"
       apply_with_weight="true"
       only_selected="false"
       lpeversion="0" /><inkscape:path-effect
       effect="bspline"
       id="path-effect1003-3-4"
       is_visible="true"
       weight="33.333333"
       steps="2"
       helper_size="0"
       apply_no_weight="true"
       apply_with_weight="true"
       only_selected="false"
       lpeversion="0" /><inkscape:path-effect
       effect="bspline"
       id="path-effect1003-3-4-0"
       is_visible="true"
       weight="33.333333"
       steps="2"
       helper_size="0"
       apply_no_weight="true"
       apply_with_weight="true"
       only_selected="false"
       lpeversion="0" /><inkscape:path-effect
       effect="bspline"
       id="path-effect887-1-6"
       is_visible="true"
       weight="33.333333"
       steps="2"
       helper_size="0"
       apply_no_weight="true"
       apply_with_weight="true"
       only_selected="false"
       lpeversion="0" /><inkscape:path-effect
       effect="bspline"
       id="path-effect975-8"
       is_visible="true"
       weight="33.333333"
       steps="2"
       helper_size="0"
       apply_no_weight="true"
       apply_with_weight="true"
       only_selected="false"
       lpeversion="0" /><g
       id="g3481"><symbol
         overflow="visible"
         id="symbol3402"><path
           style="stroke:none"
           d=""
           id="path9425" /></symbol><symbol
         overflow="visible"
         id="symbol9308"><path
           style="stroke:none"
           d="m 4.84375,-3.796875 c 0.046875,-0.140625 0.046875,-0.15625 0.046875,-0.234375 0,-0.171875 -0.140625,-0.265625 -0.296875,-0.265625 -0.09375,0 -0.25,0.0625 -0.34375,0.203125 -0.015625,0.0625 -0.109375,0.359375 -0.140625,0.546875 -0.078125,0.25 -0.140625,0.53125 -0.203125,0.796875 l -0.453125,1.796875 c -0.03125,0.140625 -0.46875,0.84375 -1.125,0.84375 -0.5,0 -0.609375,-0.4375 -0.609375,-0.8125 C 1.71875,-1.375 1.890625,-2 2.21875,-2.875 2.375,-3.28125 2.421875,-3.390625 2.421875,-3.59375 c 0,-0.4375 -0.3125,-0.8125 -0.8125,-0.8125 -0.953125,0 -1.3125,1.453125 -1.3125,1.53125 0,0.109375 0.09375,0.109375 0.109375,0.109375 0.109375,0 0.109375,-0.03125 0.15625,-0.1875 0.28125,-0.9375 0.671875,-1.234375 1.015625,-1.234375 0.078125,0 0.25,0 0.25,0.3125 0,0.25 -0.109375,0.515625 -0.171875,0.703125 -0.40625,1.0625 -0.578125,1.625 -0.578125,2.09375 0,0.890625 0.625,1.1875 1.21875,1.1875 0.390625,0 0.71875,-0.171875 1,-0.453125 -0.125,0.515625 -0.25,1.015625 -0.640625,1.546875 -0.265625,0.328125 -0.640625,0.625 -1.09375,0.625 -0.140625,0 -0.59375,-0.03125 -0.765625,-0.421875 0.15625,0 0.296875,0 0.421875,-0.125 C 1.328125,1.203125 1.421875,1.0625 1.421875,0.875 1.421875,0.5625 1.15625,0.53125 1.0625,0.53125 0.828125,0.53125 0.5,0.6875 0.5,1.171875 c 0,0.5 0.4375,0.875 1.0625,0.875 1.015625,0 2.046875,-0.90625 2.328125,-2.03125 z m 0,0"
           id="path3026" /></symbol></g><g
       id="g4051"><symbol
         overflow="visible"
         id="symbol3620"><path
           style="stroke:none"
           d=""
           id="path3975" /></symbol><symbol
         overflow="visible"
         id="symbol9154"><path
           style="stroke:none"
           d="M 2.5,-6.921875 1.15625,-5.5625 1.328125,-5.390625 2.5,-6.40625 3.640625,-5.390625 3.8125,-5.5625 Z m 0,0"
           id="path1996" /></symbol><symbol
         overflow="visible"
         id="symbol8397"><path
           style="stroke:none"
           d="m 3.296875,2.390625 c 0,-0.03125 0,-0.046875 -0.171875,-0.21875 C 1.890625,0.921875 1.5625,-0.96875 1.5625,-2.5 c 0,-1.734375 0.375,-3.46875 1.609375,-4.703125 0.125,-0.125 0.125,-0.140625 0.125,-0.171875 0,-0.078125 -0.03125,-0.109375 -0.09375,-0.109375 -0.109375,0 -1,0.6875 -1.59375,1.953125 -0.5,1.09375 -0.625,2.203125 -0.625,3.03125 0,0.78125 0.109375,1.984375 0.65625,3.125 C 2.25,1.84375 3.09375,2.5 3.203125,2.5 c 0.0625,0 0.09375,-0.03125 0.09375,-0.109375 z m 0,0"
           id="path3148" /></symbol><symbol
         overflow="visible"
         id="symbol1833"><path
           style="stroke:none"
           d="m 2.875,-2.5 c 0,-0.765625 -0.109375,-1.96875 -0.65625,-3.109375 -0.59375,-1.21875 -1.453125,-1.875 -1.546875,-1.875 -0.0625,0 -0.109375,0.046875 -0.109375,0.109375 0,0.03125 0,0.046875 0.1875,0.234375 0.984375,0.984375 1.546875,2.5625 1.546875,4.640625 0,1.71875 -0.359375,3.46875 -1.59375,4.71875 C 0.5625,2.34375 0.5625,2.359375 0.5625,2.390625 0.5625,2.453125 0.609375,2.5 0.671875,2.5 0.765625,2.5 1.671875,1.8125 2.25,0.546875 2.765625,-0.546875 2.875,-1.65625 2.875,-2.5 Z m 0,0"
           id="path9768" /></symbol><symbol
         overflow="visible"
         id="symbol861"><path
           style="stroke:none"
           d=""
           id="path422" /></symbol><symbol
         overflow="visible"
         id="symbol794"><path
           style="stroke:none"
           d="m 3.65625,-3.984375 h 0.859375 c 0.203125,0 0.296875,0 0.296875,-0.203125 0,-0.109375 -0.09375,-0.109375 -0.265625,-0.109375 H 3.71875 L 3.921875,-5.4375 c 0.046875,-0.203125 0.1875,-0.90625 0.25,-1.03125 0.078125,-0.1875 0.25,-0.34375 0.46875,-0.34375 0.03125,0 0.296875,0 0.484375,0.1875 -0.4375,0.03125 -0.546875,0.390625 -0.546875,0.53125 0,0.234375 0.1875,0.359375 0.375,0.359375 C 5.21875,-5.734375 5.5,-5.96875 5.5,-6.34375 c 0,-0.453125 -0.453125,-0.6875 -0.859375,-0.6875 -0.34375,0 -0.96875,0.1875 -1.265625,1.171875 -0.0625,0.203125 -0.09375,0.3125 -0.328125,1.5625 h -0.6875 c -0.203125,0 -0.3125,0 -0.3125,0.1875 0,0.125 0.09375,0.125 0.28125,0.125 h 0.65625 L 2.25,-0.046875 c -0.1875,0.96875 -0.359375,1.875 -0.875,1.875 -0.046875,0 -0.28125,0 -0.484375,-0.1875 C 1.359375,1.609375 1.453125,1.25 1.453125,1.109375 1.453125,0.875 1.265625,0.75 1.078125,0.75 0.8125,0.75 0.53125,0.984375 0.53125,1.359375 c 0,0.4375 0.4375,0.6875 0.84375,0.6875 0.546875,0 0.953125,-0.59375 1.125,-0.96875 0.328125,-0.625 0.546875,-1.828125 0.5625,-1.90625 z m 0,0"
           id="path7034" /></symbol><symbol
         overflow="visible"
         id="symbol9615"><path
           style="stroke:none"
           d="M 3.328125,-3.015625 C 3.390625,-3.265625 3.625,-4.1875 4.3125,-4.1875 c 0.046875,0 0.296875,0 0.5,0.125 C 4.53125,-4 4.34375,-3.765625 4.34375,-3.515625 c 0,0.15625 0.109375,0.34375 0.375,0.34375 0.21875,0 0.53125,-0.171875 0.53125,-0.578125 0,-0.515625 -0.578125,-0.65625 -0.921875,-0.65625 -0.578125,0 -0.921875,0.53125 -1.046875,0.75 -0.25,-0.65625 -0.78125,-0.75 -1.078125,-0.75 -1.03125,0 -1.609375,1.28125 -1.609375,1.53125 0,0.109375 0.109375,0.109375 0.125,0.109375 0.078125,0 0.109375,-0.03125 0.125,-0.109375 0.34375,-1.0625 1,-1.3125 1.34375,-1.3125 0.1875,0 0.53125,0.09375 0.53125,0.671875 0,0.3125 -0.171875,0.96875 -0.53125,2.375 -0.15625,0.609375 -0.515625,1.03125 -0.953125,1.03125 -0.0625,0 -0.28125,0 -0.5,-0.125 0.25,-0.0625 0.46875,-0.265625 0.46875,-0.546875 0,-0.265625 -0.21875,-0.34375 -0.359375,-0.34375 -0.3125,0 -0.546875,0.25 -0.546875,0.578125 0,0.453125 0.484375,0.65625 0.921875,0.65625 0.671875,0 1.03125,-0.703125 1.046875,-0.75 0.125,0.359375 0.484375,0.75 1.078125,0.75 1.03125,0 1.59375,-1.28125 1.59375,-1.53125 0,-0.109375 -0.078125,-0.109375 -0.109375,-0.109375 -0.09375,0 -0.109375,0.046875 -0.140625,0.109375 -0.328125,1.078125 -1,1.3125 -1.3125,1.3125 -0.390625,0 -0.546875,-0.3125 -0.546875,-0.65625 0,-0.21875 0.046875,-0.4375 0.15625,-0.875 z m 0,0"
           id="path8031" /></symbol></g><g
       id="g3199"><symbol
         overflow="visible"
         id="symbol6021"><path
           style="stroke:none"
           d=""
           id="path1951" /></symbol><symbol
         overflow="visible"
         id="symbol8897"><path
           style="stroke:none"
           d="M 2.5,-6.921875 1.15625,-5.5625 1.328125,-5.390625 2.5,-6.40625 3.640625,-5.390625 3.8125,-5.5625 Z m 0,0"
           id="path6983" /></symbol><symbol
         overflow="visible"
         id="symbol2529"><path
           style="stroke:none"
           d=""
           id="path7549" /></symbol><symbol
         overflow="visible"
         id="symbol3554"><path
           style="stroke:none"
           d="m 4.5,-4.296875 c 0,-0.046875 -0.03125,-0.09375 -0.09375,-0.09375 -0.109375,0 -0.515625,0.390625 -0.671875,0.6875 C 3.515625,-4.25 3.125,-4.40625 2.796875,-4.40625 c -1.171875,0 -2.390625,1.46875 -2.390625,2.921875 0,0.96875 0.578125,1.59375 1.3125,1.59375 0.421875,0 0.8125,-0.234375 1.171875,-0.59375 -0.09375,0.34375 -0.421875,1.6875 -0.453125,1.78125 -0.078125,0.28125 -0.15625,0.3125 -0.71875,0.328125 -0.125,0 -0.21875,0 -0.21875,0.203125 0,0 0,0.109375 0.125,0.109375 0.3125,0 0.671875,-0.03125 1,-0.03125 0.328125,0 0.6875,0.03125 1.03125,0.03125 0.046875,0 0.171875,0 0.171875,-0.203125 C 3.828125,1.625 3.734375,1.625 3.5625,1.625 3.09375,1.625 3.09375,1.5625 3.09375,1.46875 3.09375,1.390625 3.109375,1.328125 3.125,1.25 Z m -2.75,4.1875 c -0.609375,0 -0.640625,-0.765625 -0.640625,-0.9375 0,-0.484375 0.28125,-1.5625 0.453125,-1.984375 0.3125,-0.734375 0.828125,-1.15625 1.234375,-1.15625 0.65625,0 0.796875,0.8125 0.796875,0.875 0,0.0625 -0.546875,2.25 -0.578125,2.28125 C 2.859375,-0.75 2.296875,-0.109375 1.75,-0.109375 Z m 0,0"
           id="path3702" /></symbol></g><path
       id="MJX-7-TEX-I-66"
       d="M118 -162Q120 -162 124 -164T135 -167T147 -168Q160 -168 171 -155T187 -126Q197 -99 221 27T267 267T289 382V385H242Q195 385 192 387Q188 390 188 397L195 425Q197 430 203 430T250 431Q298 431 298 432Q298 434 307 482T319 540Q356 705 465 705Q502 703 526 683T550 630Q550 594 529 578T487 561Q443 561 443 603Q443 622 454 636T478 657L487 662Q471 668 457 668Q445 668 434 658T419 630Q412 601 403 552T387 469T380 433Q380 431 435 431Q480 431 487 430T498 424Q499 420 496 407T491 391Q489 386 482 386T428 385H372L349 263Q301 15 282 -47Q255 -132 212 -173Q175 -205 139 -205Q107 -205 81 -186T55 -132Q55 -95 76 -78T118 -61Q162 -61 162 -103Q162 -122 151 -136T127 -157L118 -162Z" /><path
       id="MJX-7-TEX-N-5E"
       d="M112 560L249 694L257 686Q387 562 387 560L361 531Q359 532 303 581L250 627L195 580Q182 569 169 557T148 538L140 532Q138 530 125 546L112 560Z" /><path
       id="MJX-7-TEX-N-28"
       d="M94 250Q94 319 104 381T127 488T164 576T202 643T244 695T277 729T302 750H315H319Q333 750 333 741Q333 738 316 720T275 667T226 581T184 443T167 250T184 58T225 -81T274 -167T316 -220T333 -241Q333 -250 318 -250H315H302L274 -226Q180 -141 137 -14T94 250Z" /><path
       id="MJX-7-TEX-I-79"
       d="M21 287Q21 301 36 335T84 406T158 442Q199 442 224 419T250 355Q248 336 247 334Q247 331 231 288T198 191T182 105Q182 62 196 45T238 27Q261 27 281 38T312 61T339 94Q339 95 344 114T358 173T377 247Q415 397 419 404Q432 431 462 431Q475 431 483 424T494 412T496 403Q496 390 447 193T391 -23Q363 -106 294 -155T156 -205Q111 -205 77 -183T43 -117Q43 -95 50 -80T69 -58T89 -48T106 -45Q150 -45 150 -87Q150 -107 138 -122T115 -142T102 -147L99 -148Q101 -153 118 -160T152 -167H160Q177 -167 186 -165Q219 -156 247 -127T290 -65T313 -9T321 21L315 17Q309 13 296 6T270 -6Q250 -11 231 -11Q185 -11 150 11T104 82Q103 89 103 113Q103 170 138 262T173 379Q173 380 173 381Q173 390 173 393T169 400T158 404H154Q131 404 112 385T82 344T65 302T57 280Q55 278 41 278H27Q21 284 21 287Z" /><path
       id="MJX-7-TEX-N-2223"
       d="M139 -249H137Q125 -249 119 -235V251L120 737Q130 750 139 750Q152 750 159 735V-235Q151 -249 141 -249H139Z" /><path
       id="MJX-7-TEX-I-78"
       d="M52 289Q59 331 106 386T222 442Q257 442 286 424T329 379Q371 442 430 442Q467 442 494 420T522 361Q522 332 508 314T481 292T458 288Q439 288 427 299T415 328Q415 374 465 391Q454 404 425 404Q412 404 406 402Q368 386 350 336Q290 115 290 78Q290 50 306 38T341 26Q378 26 414 59T463 140Q466 150 469 151T485 153H489Q504 153 504 145Q504 144 502 134Q486 77 440 33T333 -11Q263 -11 227 52Q186 -10 133 -10H127Q78 -10 57 16T35 71Q35 103 54 123T99 143Q142 143 142 101Q142 81 130 66T107 46T94 41L91 40Q91 39 97 36T113 29T132 26Q168 26 194 71Q203 87 217 139T245 247T261 313Q266 340 266 352Q266 380 251 392T217 404Q177 404 142 372T93 290Q91 281 88 280T72 278H58Q52 284 52 289Z" /><path
       id="MJX-7-TEX-N-29"
       d="M60 749L64 750Q69 750 74 750H86L114 726Q208 641 251 514T294 250Q294 182 284 119T261 12T224 -76T186 -143T145 -194T113 -227T90 -246Q87 -249 86 -250H74Q66 -250 63 -250T58 -247T55 -238Q56 -237 66 -225Q221 -64 221 250T66 725Q56 737 55 738Q55 746 60 749Z" /></defs><sodipodi:namedview
     id="base"
     pagecolor="#ffffff"
     bordercolor="#666666"
     borderopacity="1.0"
     inkscape:pageopacity="0.0"
     inkscape:pageshadow="2"
     inkscape:zoom="1.979899"
     inkscape:cx="172.48355"
     inkscape:cy="116.16754"
     inkscape:document-units="mm"
     inkscape:current-layer="layer1"
     showgrid="false"
     units="in"
     inkscape:lockguides="true"
     inkscape:window-width="1728"
     inkscape:window-height="966"
     inkscape:window-x="0"
     inkscape:window-y="38"
     inkscape:window-maximized="1"
     fit-margin-top="0"
     fit-margin-left="0"
     fit-margin-right="0"
     fit-margin-bottom="0"
     showguides="false"
     inkscape:pagecheckerboard="0"
     inkscape:showpageshadow="2"
     inkscape:deskcolor="#d1d1d1" /><metadata
     id="metadata5"><rdf:RDF><cc:Work
         rdf:about=""><dc:format>image/svg+xml</dc:format><dc:type
           rdf:resource="http://purl.org/dc/dcmitype/StillImage" /></cc:Work></rdf:RDF></metadata><g
     inkscape:label="Layer 1"
     inkscape:groupmode="layer"
     id="layer1"
     transform="translate(-45.453475,-250.79157)"><text
       xml:space="preserve"
       style="font-style:normal;font-variant:normal;font-weight:normal;font-stretch:normal;font-size:25.4px;line-height:1.25;font-family:arial;-inkscape-font-specification:arial;letter-spacing:0px;word-spacing:0px;fill:#000000;fill-opacity:1;stroke:none;stroke-width:0.264583"
       x="16.914434"
       y="268.60452"
       id="text855" /><path
       style="fill:#666666;stroke:#000000;stroke-width:0.732427;stroke-linecap:round;stroke-linejoin:miter;stroke-miterlimit:4;stroke-dasharray:none;stroke-opacity:1"
       d="m 57.402843,251.15778 v 47.59883"
       id="path849-4"
       inkscape:connector-curvature="0" /><path
       style="fill:#666666;stroke:#000000;stroke-width:0.679;stroke-linecap:round;stroke-linejoin:miter;stroke-miterlimit:4;stroke-dasharray:none;stroke-opacity:1"
       d="M 140.89203,298.86091 H 57.402843"
       id="path849"
       inkscape:connector-curvature="0" /><g
       inkscape:label=""
       transform="matrix(0.84916006,0,0,0.84916006,37.378904,198.52628)"
       id="g1448"
       style="fill:#ffadaf;fill-opacity:0.941176"><g
         id="g3969"
         style="fill:#ffadaf;fill-opacity:0.941176"><g
           style="fill:#ffadaf;fill-opacity:0.941176"
           id="g5897"><use
             xlink:href="#symbol8897"
             x="92.667"
             y="81.962997"
             id="use1136"
             width="100%"
             height="100%"
             style="fill:#ffadaf;fill-opacity:0.941176" /></g><g
           style="fill:#ffadaf;fill-opacity:0.941176"
           id="g2581"><use
             xlink:href="#symbol3554"
             x="91.925003"
             y="81.962997"
             id="use852"
             width="100%"
             height="100%"
             style="fill:#ffadaf;fill-opacity:0.941176" /></g></g></g><path
       style="fill:none;stroke:#aaaaaa;stroke-width:0.5;stroke-linecap:butt;stroke-linejoin:miter;stroke-miterlimit:4;stroke-dasharray:none;stroke-opacity:1"
       d="m 60.182306,297.08434 c 5.511965,-10.8814 11.023811,-21.76257 16.625841,-27.77015 5.60203,-6.00757 11.294483,-7.14186 18.578016,-2.59456 7.283537,4.5473 16.158647,14.77607 23.556717,20.78949 7.39807,6.01341 13.31879,7.81132 19.23928,9.60915"
       id="path885-2"
       inkscape:connector-curvature="0"
       inkscape:path-effect="#path-effect887-1"
       inkscape:original-d="m 60.182306,297.08434 c 5.51207,-10.88135 11.023914,-21.76252 16.53551,-32.64345 5.692321,-1.13447 11.384774,-2.26876 17.076757,-3.40275 8.875407,10.22854 17.750447,20.45738 26.625427,30.68642 5.92105,1.79766 11.84177,3.59556 17.76216,5.39371"
       sodipodi:nodetypes="ccccc" /><path
       style="fill:none;stroke:#ffadaf;stroke-width:1;stroke-linecap:round;stroke-linejoin:miter;stroke-miterlimit:4;stroke-dasharray:1, 2;stroke-dashoffset:0;stroke-opacity:0.941176"
       d="m 138.40963,271.91231 c -26.79081,0 -53.581778,0 -80.372964,0"
       id="path990"
       inkscape:connector-curvature="0"
       inkscape:path-effect="#path-effect992"
       inkscape:original-d="m 138.40963,271.91231 c -26.79081,-2.6e-4 -53.581778,-2.6e-4 -80.372964,0"
       sodipodi:nodetypes="cc" /><g
       inkscape:label=""
       transform="translate(3.5878483,225.21342)"
       id="g1004"><g
         id="g2018"><g
           style="fill:#000000;fill-opacity:1"
           id="g4764"><use
             xlink:href="#symbol9308"
             x="91.925003"
             y="81.962997"
             id="use6104"
             width="100%"
             height="100%" /></g></g></g><path
       style="fill:none;stroke:#00aad4;stroke-width:1.5;stroke-linecap:round;stroke-linejoin:miter;stroke-miterlimit:4;stroke-dasharray:none;stroke-opacity:1"
       d="m 74.558514,298.87568 c 9.076291,0 18.15232,0 27.228086,0"
       id="path969"
       inkscape:connector-curvature="0"
       inkscape:path-effect="#path-effect971"
       inkscape:original-d="m 74.558514,298.87568 c 9.076291,-2.6e-4 18.15232,-2.6e-4 27.228086,0" /><path
       style="fill:none;stroke:#00aad4;stroke-width:1.5;stroke-linecap:round;stroke-linejoin:miter;stroke-miterlimit:4;stroke-dasharray:none;stroke-opacity:1"
       d="m 74.416773,300.82681 c 0,-1.30102 0,-2.60177 0,-3.90226"
       id="path973"
       inkscape:connector-curvature="0"
       inkscape:path-effect="#path-effect975"
       inkscape:original-d="m 74.416773,300.82681 c 2.64e-4,-1.30102 2.64e-4,-2.60177 0,-3.90226" /><path
       style="fill:none;stroke:#00aad4;stroke-width:1.5;stroke-linecap:round;stroke-linejoin:miter;stroke-miterlimit:4;stroke-dasharray:none;stroke-opacity:1"
       d="m 101.93347,300.82681 c 0,-1.30102 0,-2.60177 0,-3.90226"
       id="path973-3"
       inkscape:connector-curvature="0"
       inkscape:path-effect="#path-effect975-8"
       inkscape:original-d="m 101.93347,300.82681 c 2.6e-4,-1.30102 2.6e-4,-2.60177 0,-3.90226" /><text
       xml:space="preserve"
       style="font-style:normal;font-variant:normal;font-weight:normal;font-stretch:normal;font-size:25.4px;line-height:1.25;font-family:arial;-inkscape-font-specification:arial;letter-spacing:0px;word-spacing:0px;fill:#00aad4;fill-opacity:1;stroke:none;stroke-width:0.264583"
       x="69.733772"
       y="294.0054"
       id="text851-5-8-7-7"><tspan
         sodipodi:role="line"
         x="69.733772"
         y="294.0054"
         style="font-size:6.35px;fill:#00aad4;fill-opacity:1;stroke:none;stroke-width:0.264583;stroke-opacity:1"
         id="tspan889-9-9-3">prediction set</tspan></text><g
       data-mml-node="math"
       id="g3436"
       transform="matrix(0,-0.0079611,-0.0079611,0,53.096774,288.37404)"
       style="fill:#000000;stroke:#000000;stroke-width:0"><g
         data-mml-node="TeXAtom"
         id="g3414"><g
           data-mml-node="mover"
           id="g3412"><g
             data-mml-node="mi"
             id="g3406"><use
               xlink:href="#MJX-7-TEX-I-66"
               id="use3404" /></g><g
             data-mml-node="mo"
             transform="translate(237,234)"
             id="g3410"><use
               xlink:href="#MJX-7-TEX-N-5E"
               id="use3408" /></g></g></g><g
         data-mml-node="mo"
         transform="translate(737)"
         id="g3418"><use
           xlink:href="#MJX-7-TEX-N-28"
           id="use3416" /></g><g
         data-mml-node="mi"
         transform="translate(1126)"
         id="g3422"><use
           xlink:href="#MJX-7-TEX-I-79"
           id="use3420" /></g><g
         data-mml-node="mo"
         transform="translate(1893.8)"
         id="g3426"><use
           xlink:href="#MJX-7-TEX-N-2223"
           id="use3424" /></g><g
         data-mml-node="mi"
         transform="translate(2449.6)"
         id="g3430"><use
           xlink:href="#MJX-7-TEX-I-78"
           id="use3428" /></g><g
         data-mml-node="mo"
         transform="translate(3021.6)"
         id="g3434"><use
           xlink:href="#MJX-7-TEX-N-29"
           id="use3432" /></g></g></g></svg>
